<svg version="1.0" xmlns="http://www.w3.org/2000/svg" width="256px" height="256px" viewBox="0 0 2560 2560" preserveAspectRatio="xMidYMid meet">
<g id="layer101" fill="#ffffff" stroke="none">
 <path d="M1271 1805 c-40 -118 -148 -289 -246 -388 -75 -75 -201 -163 -290 -203 -33 -14 -102 -37 -155 -52 -85 -24 -112 -27 -265 -27 -93 0 -186 3 -205 7 -35 7 -35 7 10 -17 104 -56 294 -92 430 -80 93 8 216 38 295 73 142 62 320 220 395 351 19 33 40 61 45 61 6 0 22 -21 37 -48 41 -73 131 -176 211 -241 177 -147 428 -220 660 -192 100 12 227 47 287 81 l35 19 -35 -7 c-19 -4 -114 -7 -210 -7 -159 0 -184 3 -272 27 -232 65 -410 184 -545 366 -53 70 -138 224 -159 287 l-10 30 -13 -40z"/>
 <path d="M1246 1407 c-21 -28 -74 -128 -116 -222 -42 -93 -86 -190 -98 -215 -34 -75 -51 -120 -47 -120 3 0 14 19 26 43 31 62 260 446 269 452 4 2 49 -64 100 -148 51 -83 107 -174 125 -202 17 -27 42 -69 55 -92 41 -74 32 -40 -16 63 -25 54 -53 115 -61 134 -99 217 -134 281 -192 352 -4 4 -24 -16 -45 -45z"/>
 </g>
</svg>