<?xml version="1.0" standalone="no"?>
<!DOCTYPE svg PUBLIC "-//W3C//DTD SVG 20010904//EN"
 "http://www.w3.org/TR/2001/REC-SVG-20010904/DTD/svg10.dtd">
<svg version="1.0" xmlns="http://www.w3.org/2000/svg"
 width="270.000000pt" height="270.000000pt" viewBox="0 0 270.000000 270.000000"
 preserveAspectRatio="xMidYMid meet">

<g transform="translate(0.000000,270.000000) scale(0.100000,-0.100000)"
fill="#000000" stroke="none">
<path d="M1189 2441 c10 -7 8 -11 -10 -16 -33 -11 -110 -75 -103 -86 3 -5 0
-9 -7 -9 -18 0 -110 -93 -105 -107 3 -7 -1 -10 -10 -6 -9 3 -14 0 -12 -7 2 -7
-5 -14 -15 -15 -31 -6 -47 -14 -47 -25 0 -6 12 -3 28 7 26 16 26 16 10 -2 -9
-10 -27 -19 -40 -20 -35 -4 -35 -4 -42 -20 -5 -13 -2 -13 19 1 27 18 35 4 10
-16 -9 -7 -14 -19 -11 -27 3 -8 2 -12 -3 -9 -11 7 -53 -52 -46 -64 4 -6 1 -9
-7 -8 -7 2 -12 -3 -10 -10 1 -8 -2 -11 -7 -7 -6 3 -22 -17 -35 -44 -14 -27
-37 -62 -51 -77 -28 -30 -30 -35 -15 -50 7 -7 2 -25 -16 -57 -25 -45 -39 -62
-28 -34 3 8 -2 14 -11 14 -8 0 -15 -4 -15 -8 0 -5 -14 -24 -30 -42 -31 -36
-39 -54 -18 -41 8 5 9 1 5 -12 -6 -17 -6 -17 5 -3 20 25 21 25 55 1 l32 -22 6
21 c4 11 9 18 11 16 3 -2 -1 -16 -7 -31 -11 -23 -13 -24 -24 -10 -10 14 -13
12 -25 -16 -7 -18 -13 -38 -13 -46 0 -8 -4 -14 -9 -14 -5 0 -6 -4 -3 -10 3 -5
2 -10 -3 -10 -11 0 -43 -74 -47 -110 -2 -14 -7 -40 -13 -57 -6 -18 -8 -33 -5
-33 3 0 1 -6 -5 -12 -5 -7 -20 -60 -32 -118 -11 -58 -25 -113 -31 -123 -5 -10
-7 -22 -4 -27 3 -4 -2 -39 -10 -76 -9 -37 -14 -73 -11 -80 3 -7 1 -14 -3 -16
-4 -2 -5 -37 -1 -78 5 -57 7 -64 9 -30 5 142 74 447 126 565 44 99 56 138 44
149 -7 6 -9 7 -7 1 8 -14 -19 -38 -27 -25 -3 6 -1 10 5 10 6 0 9 3 7 8 -3 4 1
13 9 20 8 7 14 9 15 5 0 -4 7 8 14 27 9 24 14 29 15 15 0 -11 16 12 36 55 20
41 40 77 44 80 4 3 11 16 15 30 4 14 11 27 15 30 4 3 22 32 40 65 18 33 49 87
70 120 20 33 54 89 75 125 21 36 53 83 69 105 53 68 181 191 220 209 20 9 34
21 31 26 -3 4 9 20 26 34 17 14 27 26 22 26 -16 0 -70 -38 -128 -91 -33 -30
-81 -72 -108 -92 -28 -23 -44 -43 -41 -50 4 -7 3 -9 -1 -4 -5 4 -21 -5 -37
-20 -28 -27 -39 -51 -16 -37 6 4 8 3 5 -4 -4 -5 -15 -9 -25 -8 -9 2 -20 -1
-23 -6 -3 -5 -9 -3 -12 5 -4 12 0 15 14 12 15 -3 19 0 15 10 -3 9 14 34 42 62
26 27 46 51 44 56 -1 4 3 6 10 5 7 -2 12 3 13 11 0 8 7 17 16 20 18 7 149 122
149 131 0 3 -10 7 -22 7 -16 2 -19 0 -9 -6z m-69 -76 c-13 -14 -28 -25 -34
-25 -6 0 3 11 19 25 39 31 45 32 15 0z m-220 -235 c0 -5 -10 -15 -22 -21 l-23
-12 20 21 c23 24 25 25 25 12z m-38 -87 c-6 -2 -10 -8 -8 -12 6 -10 -31 -57
-39 -49 -10 9 33 68 48 67 8 0 8 -2 -1 -6z m-52 -87 c-7 -7 -13 -7 -20 0 -6 6
-3 10 10 10 13 0 16 -4 10 -10z m-18 -37 c-2 -8 -9 -18 -17 -23 -11 -8 -11
-12 3 -22 16 -12 16 -14 0 -28 -10 -9 -13 -11 -8 -4 14 17 12 28 -6 28 -8 0
-12 -4 -9 -10 3 -5 1 -10 -5 -10 -6 0 -9 -4 -5 -9 3 -5 1 -12 -4 -15 -6 -4 -8
7 -6 24 3 18 0 28 -5 25 -6 -4 -10 -3 -10 0 0 8 22 30 35 36 6 2 9 9 9 15 -1
7 6 11 15 9 9 -1 15 -9 13 -16z m-79 -98 c-2 -13 1 -20 7 -16 6 3 7 -1 4 -9
-3 -9 -10 -13 -15 -10 -8 5 -13 -9 -10 -28 0 -4 -10 -19 -24 -34 -14 -15 -22
-30 -19 -35 3 -5 0 -9 -6 -9 -6 0 -8 -5 -4 -12 4 -6 3 -8 -4 -4 -5 3 -13 0
-16 -6 -3 -7 -3 -3 -1 9 7 28 -12 40 -20 12 -4 -11 -9 -18 -12 -16 -2 3 1 15
7 27 9 16 15 19 24 11 16 -13 24 -5 56 60 18 37 20 50 11 67 -9 17 -8 20 7 17
11 -1 16 -10 15 -24z m23 -76 c-14 -13 -26 -30 -26 -36 0 -7 -2 -10 -5 -7 -3
3 4 26 17 52 17 36 24 43 31 31 6 -12 1 -23 -17 -40z"/>
<path d="M1420 2210 c-30 -4 -66 -14 -80 -21 -34 -18 -90 -76 -90 -92 0 -18
-24 -67 -32 -67 -5 0 -8 -9 -8 -20 0 -11 -5 -20 -10 -20 -6 0 -19 -14 -29 -32
-18 -28 -75 -67 -123 -84 -40 -14 -22 -38 100 -129 96 -72 108 -90 99 -148
-12 -75 -76 -216 -100 -217 -4 0 -27 -9 -50 -20 -37 -17 -53 -19 -112 -13 -55
6 -70 12 -73 26 -2 11 3 17 15 17 17 1 17 1 0 11 -10 6 -24 8 -32 6 -7 -3 -21
3 -31 14 -9 10 -25 19 -36 19 -10 0 -18 7 -18 15 0 12 -5 12 -28 2 -40 -17
-77 -46 -70 -53 4 -3 -4 -17 -18 -31 -20 -20 -24 -31 -19 -55 4 -17 16 -39 27
-50 18 -18 25 -19 57 -10 40 12 199 16 225 6 30 -12 19 -41 -19 -48 -28 -6
-38 -14 -50 -42 -14 -35 -14 -36 15 -61 17 -13 30 -35 31 -46 0 -13 3 -16 6
-9 4 10 11 8 28 -8 18 -17 27 -19 42 -12 10 6 49 12 87 14 73 3 86 12 86 63 0
14 7 28 15 31 8 4 15 15 15 25 0 11 4 27 10 37 16 29 50 110 50 120 0 5 9 17
20 27 11 10 20 22 20 26 0 4 5 20 12 36 6 15 10 34 9 41 -1 7 4 11 11 10 6 -2
12 2 13 9 0 6 13 23 30 39 30 28 89 41 109 25 6 -5 35 -11 63 -14 29 -3 68
-12 85 -20 56 -24 178 -44 178 -29 0 2 -5 13 -11 24 -8 15 -8 19 0 14 6 -4 11
-3 11 3 0 5 -4 11 -8 13 -21 9 -82 104 -82 128 0 15 -11 44 -25 64 -14 20 -25
50 -25 66 0 15 -6 31 -12 33 -7 3 -5 6 6 6 10 1 24 8 30 16 7 10 28 16 59 17
39 0 47 4 47 19 0 11 5 16 14 13 18 -7 29 23 16 45 -5 11 -5 22 0 27 13 13
-38 112 -61 119 -10 4 -18 9 -18 13 4 25 -3 33 -21 27 -12 -4 -20 -2 -20 5 0
6 -10 14 -23 19 -12 5 -29 22 -37 37 -8 16 -15 30 -16 32 -4 8 -34 -12 -34
-24 0 -16 -11 -18 -25 -6 -15 13 -89 32 -116 31 -13 -1 -49 -5 -79 -9z m365
-220 c3 -5 1 -10 -4 -10 -6 0 -11 5 -11 10 0 6 2 10 4 10 3 0 8 -4 11 -10z"/>
<path d="M1770 1674 c0 -8 5 -12 10 -9 6 4 8 11 5 16 -9 14 -15 11 -15 -7z"/>
<path d="M596 1618 c3 -4 9 -8 15 -8 5 0 9 4 9 8 0 5 -7 9 -15 9 -8 0 -12 -4
-9 -9z"/>
<path d="M1300 1170 c20 -13 43 -13 35 0 -3 6 -16 10 -28 10 -18 0 -19 -2 -7
-10z"/>
<path d="M879 1138 c-1 -5 -2 -11 -3 -15 -2 -14 -48 -83 -54 -83 -4 0 -13 -12
-20 -27 -16 -35 -7 -44 80 -77 65 -24 94 -22 63 4 -17 14 -21 60 -5 60 6 0 10
6 10 13 0 14 -69 135 -71 125z m4 -135 c-7 -2 -19 -2 -25 0 -7 3 -2 5 12 5 14
0 19 -2 13 -5z m-17 -40 c-10 -10 -19 5 -10 18 6 11 8 11 12 0 2 -7 1 -15 -2
-18z"/>
<path d="M1350 1131 c0 -4 9 -13 20 -21 11 -8 20 -22 20 -32 0 -10 6 -18 14
-18 7 0 21 -15 30 -34 9 -18 32 -46 51 -62 19 -15 35 -32 35 -36 0 -5 12 -22
28 -38 25 -28 29 -29 67 -19 22 6 47 17 56 25 8 8 23 14 33 14 14 0 16 6 10
38 -4 20 -10 39 -13 42 -3 3 -6 25 -6 49 l0 45 -89 13 c-49 7 -92 10 -97 7 -5
-3 -19 1 -31 8 -26 13 -36 16 -90 22 -21 2 -38 1 -38 -3z"/>
<path d="M1230 1030 c-9 -17 -7 -24 12 -39 22 -18 48 -18 48 0 0 5 7 9 15 9 8
0 15 7 15 16 0 10 -6 14 -15 10 -9 -3 -15 0 -15 9 0 23 -47 19 -60 -5z"/>
<path d="M761 907 c-16 -40 -14 -60 4 -53 11 4 15 -2 15 -25 0 -18 4 -28 10
-24 6 3 14 -5 20 -19 5 -14 16 -26 25 -26 8 0 15 -8 15 -19 0 -18 15 -27 70
-40 14 -3 25 -13 25 -21 0 -18 74 -33 91 -19 7 6 16 4 23 -5 9 -11 19 -13 37
-5 33 12 34 12 34 -6 0 -25 27 -17 49 14 33 46 25 66 -15 36 -26 -19 -36 -19
-33 3 4 46 -1 49 -55 27 -15 -7 -17 -5 -12 12 12 38 -42 61 -77 33 l-24 -19
-1 37 c-1 22 -8 42 -19 50 -20 15 -48 12 -48 -5 0 -6 -3 -15 -7 -19 -4 -3 -6
2 -4 12 2 11 -2 28 -10 38 -11 16 -16 17 -29 6 -12 -10 -15 -10 -15 4 0 9 -5
16 -11 16 -5 0 -7 5 -4 10 3 6 2 10 -4 10 -5 0 -13 -6 -17 -12 -6 -9 -10 -5
-15 12 l-6 25 -12 -28z"/>
<path d="M663 793 c-7 -2 -13 -18 -13 -34 0 -16 -4 -29 -9 -29 -6 0 -9 -19 -8
-42 1 -25 -3 -43 -11 -46 -7 -2 -12 -8 -12 -14 0 -6 9 -3 19 6 19 17 20 17 23
-5 4 -32 26 -35 38 -4 8 22 13 24 29 15 37 -19 51 -13 45 20 -5 23 -3 30 10
30 9 0 16 -4 16 -9 0 -5 11 -12 25 -15 14 -4 28 -13 32 -22 5 -13 8 -13 24 2
12 11 19 13 19 5 0 -7 5 -9 11 -5 8 5 6 10 -5 16 -9 5 -14 13 -11 17 2 5 -12
17 -33 27 -20 10 -41 25 -45 32 -4 6 -17 12 -27 12 -11 0 -20 6 -20 13 0 9 -3
8 -9 -2 -7 -11 -14 -8 -32 13 -22 26 -32 29 -56 19z"/>
<path d="M631 764 c0 -11 3 -14 6 -6 3 7 2 16 -1 19 -3 4 -6 -2 -5 -13z"/>
<path d="M1226 664 c-20 -19 -20 -25 -2 -18 8 3 17 12 20 20 7 18 1 18 -18 -2z"/>
<path d="M567 653 c-11 -19 -19 -115 -9 -109 7 4 8 -4 1 -26 -12 -44 -3 -71
22 -63 13 4 19 2 19 -9 0 -9 5 -16 10 -16 6 0 16 -11 22 -25 6 -14 16 -25 22
-25 6 0 22 -12 35 -25 13 -14 31 -25 41 -25 11 0 22 -4 25 -10 3 -5 27 -10 53
-10 36 0 54 6 76 25 16 14 38 25 49 25 17 0 18 2 6 16 -10 13 -10 17 2 25 12
7 11 9 -3 9 -9 0 -18 3 -20 8 -5 11 -61 49 -86 56 -12 4 -30 18 -38 32 -9 13
-21 24 -28 24 -6 0 -23 11 -38 25 -15 14 -35 25 -46 25 -10 0 -24 6 -31 13
-11 10 -12 9 -6 -1 5 -10 2 -13 -10 -10 -10 1 -26 18 -36 36 -21 41 -26 46
-32 35z m83 -93 c0 -5 -12 -10 -27 -10 -22 0 -25 2 -13 10 20 13 40 13 40 0z
m100 -192 c0 -13 -23 -5 -28 10 -2 7 2 10 12 6 9 -3 16 -11 16 -16z"/>
<path d="M956 643 c-4 -4 -15 -8 -23 -8 -9 0 -18 -5 -20 -11 -5 -14 78 -36
141 -38 49 -2 60 19 12 22 -54 4 -86 13 -94 28 -4 8 -12 11 -16 7z"/>
<path d="M816 572 c-3 -6 -1 -14 5 -17 15 -10 25 3 12 16 -7 7 -13 7 -17 1z"/>
<path d="M522 530 c0 -14 2 -19 5 -12 2 6 2 18 0 25 -3 6 -5 1 -5 -13z"/>
</g>
</svg>
