<?xml version="1.0" standalone="no"?>
<!DOCTYPE svg PUBLIC "-//W3C//DTD SVG 20010904//EN"
 "http://www.w3.org/TR/2001/REC-SVG-20010904/DTD/svg10.dtd">
<svg version="1.0" xmlns="http://www.w3.org/2000/svg"
 width="564.000000pt" height="446.000000pt" viewBox="0 0 564.000000 446.000000"
 preserveAspectRatio="xMidYMid meet">

<g transform="translate(0.000000,446.000000) scale(0.100000,-0.100000)"
fill="#000000" stroke="none">
<path d="M2450 4322 c-69 -12 -114 -27 -165 -56 -286 -157 -382 -289 -470
-644 -42 -168 -60 -289 -80 -545 -19 -244 -11 -352 42 -530 55 -185 82 -289
82 -317 1 -50 -20 -98 -64 -146 -25 -26 -42 -50 -39 -53 3 -3 11 2 18 12 13
16 36 24 36 11 0 -4 -8 -13 -17 -20 -15 -11 -15 -13 -3 -14 8 0 21 9 28 20 7
12 17 18 23 14 8 -4 8 -9 0 -17 -7 -7 -7 -16 0 -28 21 -40 -160 -663 -230
-795 -23 -42 -16 -59 18 -46 17 6 30 28 48 78 27 72 106 323 144 457 15 54 26
76 35 73 10 -4 11 1 3 22 -12 30 11 150 37 192 l15 25 -4 -29 c-8 -52 5 -60
25 -14 l19 43 29 -53 c64 -118 116 -159 260 -204 193 -60 502 -7 660 113 25
19 60 45 77 57 l33 23 -6 -45 c-5 -37 -4 -46 8 -46 10 0 17 -12 20 -32 5 -38
-7 -339 -16 -383 l-6 -30 15 30 14 30 2 -45 c5 -95 7 -122 13 -127 6 -6 11 83
9 155 0 17 3 32 8 32 10 0 34 -42 31 -53 -1 -5 6 -11 17 -14 24 -6 27 -24 26
-151 0 -56 3 -102 6 -102 3 0 6 -16 7 -35 1 -19 -2 -35 -6 -35 -9 0 -34 -62
-27 -68 3 -3 13 2 23 11 24 22 32 13 32 -32 0 -30 -9 -45 -53 -88 -78 -77
-119 -167 -125 -270 -10 -188 86 -339 254 -398 152 -54 249 -15 270 108 3 22
24 76 45 120 54 111 65 171 50 277 -8 61 -8 138 -1 273 9 185 15 222 30 197
11 -17 30 -3 30 22 0 18 2 18 22 -8 38 -51 41 -51 34 -3 -5 36 -4 48 8 52 9 4
12 14 9 28 -4 15 -3 20 5 15 7 -4 12 -22 12 -39 0 -24 3 -28 10 -17 6 10 10
11 10 3 0 -7 4 -13 10 -13 5 0 7 13 3 31 -3 17 0 48 7 71 11 31 11 44 2 59 -8
12 -8 19 -2 19 6 0 13 -13 16 -28 4 -19 12 -28 25 -28 16 0 18 6 14 54 -2 29
-6 56 -9 60 -2 4 -7 29 -10 56 -3 26 -9 53 -13 59 -4 7 5 4 20 -6 l27 -17 -11
24 c-7 15 -17 22 -25 19 -22 -8 -41 14 -53 63 -10 39 -9 51 6 82 23 46 34 49
72 16 18 -14 34 -24 37 -21 3 2 -11 18 -31 34 l-36 30 36 74 c19 40 35 79 35
86 0 7 5 13 10 13 15 0 12 -32 -6 -75 -27 -64 0 -91 29 -29 12 24 22 34 32 30
12 -4 14 7 11 67 -2 40 -8 83 -15 95 -10 19 -9 22 6 22 17 1 17 1 1 11 -10 5
-18 15 -18 21 0 33 175 -117 231 -198 46 -67 53 -52 13 27 -30 60 -67 104
-223 263 -195 199 -238 255 -273 353 -42 119 -61 299 -36 347 15 29 28 36 70
36 42 0 69 28 61 63 -4 16 -2 18 5 8 18 -26 26 65 8 102 -23 49 -45 64 -94 63
-23 0 -42 2 -42 5 0 11 27 29 33 22 4 -3 7 -1 7 6 0 6 -7 14 -15 17 -8 4 -12
11 -9 16 4 6 10 5 16 -3 6 -9 7 -3 3 18 -4 20 -2 34 6 39 7 4 10 3 6 -2 -3 -6
-2 -16 4 -24 7 -12 9 -11 10 5 1 11 3 30 4 42 3 28 -21 63 -42 63 -9 0 -25 -8
-35 -17 -17 -15 -19 -15 -32 2 -10 14 -20 16 -49 11 -23 -4 -37 -13 -37 -22 0
-8 -4 -13 -9 -10 -20 13 12 -81 45 -134 l36 -55 -6 43 c-3 23 -9 61 -12 85 -4
23 -3 39 1 35 5 -4 14 0 21 10 12 15 14 8 15 -48 2 -36 2 -74 2 -85 0 -11 5
-23 11 -27 8 -6 7 -8 -1 -8 -21 0 -15 -37 17 -100 31 -61 37 -94 20 -105 -6
-3 -10 -3 -10 2 0 12 -51 33 -64 26 -6 -4 -5 1 2 10 8 9 11 25 7 36 -5 17 -3
20 12 15 10 -3 5 2 -11 12 -25 14 -27 18 -14 28 13 10 13 13 -4 30 -21 22 -24
40 -5 31 6 -4 4 0 -5 8 -10 8 -15 17 -11 20 3 4 1 7 -5 7 -7 0 -20 16 -29 35
-18 38 -33 37 -33 -3 0 -41 -43 -124 -79 -155 -24 -20 -43 -27 -69 -26 l-37 2
42 6 c23 4 49 13 58 21 25 21 55 85 62 135 5 40 2 48 -26 80 -17 20 -31 32
-31 27 0 -5 -18 -9 -41 -9 -22 0 -37 2 -31 6 5 3 11 12 13 20 4 11 8 10 22 -3
16 -16 17 -16 17 8 0 20 4 24 18 20 16 -5 16 -5 0 5 -15 10 -15 14 -3 37 10
19 11 34 4 52 -8 22 -8 23 6 12 9 -7 15 -8 15 -2 0 17 -57 60 -90 67 -43 9
-90 -3 -83 -21 4 -11 9 -12 18 -4 9 8 15 8 20 0 10 -16 -25 -25 -46 -11 -17
10 -21 8 -29 -14 -14 -37 -12 -64 5 -81 8 -8 17 -15 20 -14 37 2 45 -2 53 -32
5 -19 5 -35 0 -36 -5 -2 -4 -10 2 -18 10 -11 2 -13 -45 -10 l-57 3 7 -45 c10
-65 -10 -44 -25 28 -8 36 -10 82 -6 115 l6 55 -76 -5 c-42 -3 -80 -7 -83 -9
-3 -2 -31 -7 -61 -11 -30 -3 -82 -10 -115 -16 -33 -5 -71 -8 -85 -8 -41 2 27
15 190 39 80 12 159 28 177 36 17 8 39 14 48 14 9 0 26 11 36 24 11 14 28 28
39 31 33 10 23 30 -17 33 -43 3 -48 6 -37 24 5 7 9 20 11 28 1 12 -1 12 -11
-2 -8 -11 -17 -14 -27 -7 -12 7 -12 9 1 9 8 0 23 11 32 25 16 22 17 25 2 39
-9 9 -20 14 -25 11 -5 -4 -6 2 -2 11 4 10 2 15 -4 11 -5 -3 -10 0 -10 8 0 8 5
11 10 8 6 -4 8 1 4 11 -4 9 -3 15 2 11 5 -3 11 1 14 7 2 7 4 1 4 -14 0 -15 -3
-25 -8 -22 -5 3 -6 -2 -2 -12 5 -14 8 -13 19 7 7 15 9 30 3 40 -4 9 -5 20 -1
24 4 5 1 5 -5 1 -8 -4 -13 -1 -13 9 0 9 5 13 10 10 16 -10 7 18 -10 32 -12 9
-9 10 15 7 25 -4 27 -3 10 5 -17 8 -17 10 -3 10 12 1 15 6 11 18 -4 10 -2 14
4 10 6 -4 16 0 23 8 8 10 18 11 36 4 14 -5 23 -5 20 0 -3 5 5 12 19 15 14 4
25 11 25 16 0 5 7 7 15 4 8 -4 15 -2 15 4 0 6 11 7 28 3 56 -15 132 -187 132
-300 0 -34 10 -84 25 -126 14 -38 25 -73 25 -77 0 -3 -12 -11 -27 -16 -26 -10
-26 -10 -5 -11 12 -1 31 -7 42 -13 39 -25 40 3 5 107 -18 55 -43 152 -54 215
-11 64 -27 135 -36 159 -21 60 -73 128 -147 193 -130 114 -224 160 -405 198
-139 30 -411 36 -543 12z m763 -477 c-6 -16 -16 -19 -26 -8 -9 8 13 34 24 28
4 -3 6 -12 2 -20z m20 -140 c-4 -14 -30 -14 -30 0 0 7 7 12 16 10 9 -1 15 -6
14 -10z m-55 -625 c10 0 42 -9 72 -20 30 -11 56 -20 58 -20 1 0 -8 -18 -20
-40 -24 -41 -60 -59 -84 -40 -7 7 -17 9 -22 6 -5 -3 -21 3 -34 14 -14 11 -28
16 -32 12 -4 -3 -4 2 0 12 5 14 4 17 -5 11 -10 -6 -11 -3 -2 12 6 11 7 24 3
28 -4 5 -2 5 5 1 7 -4 10 -13 7 -20 -3 -7 5 -24 16 -37 l21 -24 -16 27 c-9 15
-14 31 -11 37 4 5 -1 17 -10 25 -14 15 -14 16 0 16 9 0 16 8 16 18 1 16 1 16
11 0 5 -10 18 -18 27 -18z m384 -39 c18 -8 19 -10 6 -12 -52 -5 -98 0 -98 12
0 5 5 7 10 4 6 -3 10 -2 10 4 0 10 35 7 72 -8z m-201 -78 c13 -16 12 -17 -3
-4 -10 7 -18 15 -18 17 0 8 8 3 21 -13z m62 -35 c2 4 2 1 0 -6 -1 -8 3 -12 9
-9 7 2 21 0 31 -5 14 -7 16 -12 7 -23 -10 -12 -8 -13 9 -10 12 2 21 1 21 -3 0
-4 17 -7 37 -7 32 0 39 -4 41 -22 4 -29 -11 -29 -55 -2 -22 14 -45 20 -67 17
-19 -2 -38 2 -45 9 -7 8 -17 10 -23 7 -7 -4 -8 -2 -4 4 4 7 1 12 -6 12 -9 0
-10 3 -2 8 6 4 10 15 8 24 -2 14 1 16 16 8 10 -5 20 -7 23 -2z m-995 -41 c5
-24 -25 -57 -44 -50 -8 3 -12 8 -10 11 3 3 1 11 -6 19 -8 11 -7 17 8 28 24 19
48 15 52 -8z m711 -66 c-5 -24 -7 -52 -3 -63 8 -28 -4 -85 -20 -91 -10 -4 -12
4 -9 31 3 21 6 60 8 87 1 28 4 52 5 55 1 3 2 9 1 13 -1 5 3 6 9 2 5 -3 10 -1
10 6 0 7 2 10 4 8 3 -3 0 -24 -5 -48z m359 -36 c22 -4 36 -14 42 -29 10 -27 6
-101 -9 -174 -9 -46 -8 -57 9 -90 11 -20 20 -42 20 -49 0 -20 -18 -15 -25 7
-3 11 -11 20 -17 20 -6 0 -7 -29 -3 -83 7 -81 6 -84 -18 -100 -22 -14 -27 -15
-38 -1 -7 8 -18 13 -26 10 -8 -3 -11 -1 -8 4 3 6 -4 10 -17 10 -26 1 -61 24
-51 33 3 4 -4 7 -16 7 -12 0 -19 4 -16 10 3 6 -3 10 -15 10 -12 0 -18 5 -15
10 3 6 -4 10 -17 11 -22 0 -22 1 -3 9 18 8 18 9 -5 9 -20 1 -22 3 -10 11 13 8
13 10 -1 10 -15 0 -19 11 -20 55 0 14 -2 16 -8 7 -5 -8 -11 -13 -15 -13 -3 1
-5 -2 -3 -6 1 -5 5 -7 10 -6 4 2 7 -3 7 -11 0 -9 -7 -12 -19 -9 -10 3 -18 12
-17 20 3 21 45 55 59 46 5 -3 7 -2 4 4 -3 5 0 10 8 10 8 0 12 -4 9 -8 -2 -4 0
-10 5 -13 5 -4 12 2 14 11 4 14 5 13 6 -4 0 -12 10 -27 21 -33 12 -7 18 -16
13 -23 -5 -9 -3 -9 8 -1 8 6 21 14 29 18 8 3 5 4 -7 2 -12 -2 -28 3 -36 13
-16 18 -29 73 -16 65 5 -3 9 -16 9 -29 0 -23 34 -45 47 -31 4 3 13 0 22 -7 14
-11 14 -10 2 5 -7 10 -17 15 -23 12 -5 -3 -16 -3 -26 1 -14 5 -14 7 -2 15 13
9 13 10 0 10 -13 0 -13 1 0 10 11 7 11 10 2 10 -7 0 -11 4 -8 9 3 5 -3 20 -13
33 -24 30 -13 59 13 33 14 -15 20 -13 18 6 -2 12 132 2 136 -10 7 -20 28 -11
30 13 1 20 -4 26 -27 31 -17 3 -35 13 -42 21 -6 8 -19 14 -29 14 -9 0 -20 3
-24 8 -4 4 -22 7 -39 7 -28 0 -32 4 -34 30 -1 16 2 34 8 41 10 12 99 11 167
-1z m-274 -37 c-9 -14 -24 2 -24 25 1 21 1 21 15 3 8 -10 12 -23 9 -28z m81
21 c8 -25 -16 -55 -38 -46 -21 8 -10 67 13 67 10 0 22 -10 25 -21z m-118 -131
c-3 -8 -6 -5 -6 6 -1 11 2 17 5 13 3 -3 4 -12 1 -19z m-5 -41 c8 -16 8 -19 -5
-14 -8 3 -19 1 -25 -5 -13 -13 -11 10 2 31 6 10 5 12 -2 7 -7 -4 -12 -1 -12
10 0 14 3 14 16 4 8 -8 20 -22 26 -33z m34 17 c1 -9 0 -13 -4 -10 -3 4 -7 14
-8 22 -1 9 0 13 4 10 3 -4 7 -14 8 -22z m42 -31 c-14 -16 -24 -36 -23 -46 2
-11 1 -16 -2 -13 -3 3 -11 -2 -18 -11 -8 -11 -14 -13 -19 -5 -4 7 -2 12 3 12
6 0 11 4 11 10 0 5 -7 7 -15 4 -11 -5 -13 -2 -8 12 5 13 3 15 -8 9 -12 -7 -12
-5 -1 6 11 12 14 12 21 0 5 -7 14 -10 20 -7 6 4 8 12 5 18 -4 6 -2 8 3 5 6 -4
18 2 28 13 10 11 20 20 23 20 3 0 -6 -12 -20 -27z m26 -34 c-3 -5 -10 -7 -15
-3 -5 3 -7 10 -3 15 3 5 10 7 15 3 5 -3 7 -10 3 -15z m-104 -45 c0 -8 -19 -13
-24 -6 -3 5 1 9 9 9 8 0 15 -2 15 -3z m420 -85 c0 -6 -4 -7 -10 -4 -5 3 -10
11 -10 16 0 6 5 7 10 4 6 -3 10 -11 10 -16z m235 -377 c3 -8 0 -31 -6 -50 -11
-33 -13 -34 -26 -16 -7 10 -13 35 -11 55 1 29 5 35 19 32 10 -3 20 -12 24 -21z
m-59 -88 c-11 -42 -31 -7 -27 46 1 12 4 12 17 -2 12 -11 15 -25 10 -44z m73
-43 c-24 -44 -45 -55 -34 -18 8 24 46 70 53 63 2 -3 -6 -23 -19 -45z m-67
-413 c3 -7 6 -44 7 -83 1 -49 -2 -65 -8 -54 -15 24 -26 149 -13 149 5 0 12 -6
14 -12z m-524 -471 c-4 -30 -28 -34 -28 -4 0 15 6 24 15 24 10 0 15 -8 13 -20z
m-54 -32 c3 -8 1 -15 -4 -15 -6 0 -10 7 -10 15 0 8 2 15 4 15 2 0 6 -7 10 -15z
m-53 -114 c-11 -11 -31 -37 -44 -58 -85 -136 -73 -311 29 -433 54 -64 167
-115 205 -92 15 10 17 9 13 -3 -7 -17 15 -12 54 13 19 13 22 12 22 -2 0 -10 6
-13 15 -10 8 4 15 13 15 22 0 12 3 13 11 5 9 -9 8 -16 -4 -27 -17 -17 -62 -22
-52 -6 3 6 2 10 -4 10 -5 0 -14 -7 -19 -17 -8 -13 -19 -15 -60 -10 -113 13
-218 93 -270 205 -23 48 -27 71 -27 147 0 76 4 99 27 146 24 54 96 145 105
135 3 -2 -5 -14 -16 -25z m127 -61 l23 -40 -23 -1 c-13 0 -38 -1 -56 -2 -17
-1 -32 0 -32 3 0 10 51 80 58 80 4 0 17 -18 30 -40z m106 -249 c-2 -3 -10 4
-18 14 -12 17 -18 18 -40 7 -14 -6 -26 -16 -26 -22 0 -5 -4 -10 -9 -10 -7 0 5
57 25 120 3 9 18 -9 38 -45 19 -33 32 -62 30 -64z m-179 0 c4 -21 4 -31 -3
-27 -5 3 -12 19 -16 36 -6 33 -26 33 -26 0 0 -30 -19 -33 -32 -6 -16 36 -28
32 -28 -9 0 -19 -4 -35 -10 -35 -12 0 -12 38 -1 95 l8 40 18 -37 c10 -21 22
-38 25 -38 4 0 13 19 20 43 l13 42 12 -35 c7 -20 16 -51 20 -69z m293 24 c17
-20 17 -20 -5 -1 -14 12 -22 29 -22 45 l2 26 4 -25 c3 -14 12 -34 21 -45z m82
-5 l-11 -25 6 25 c2 14 5 36 6 50 l2 25 4 -25 c2 -14 -1 -37 -7 -50z m-255
-126 c8 -20 15 -39 15 -43 0 -6 -82 -43 -84 -38 -1 1 -10 19 -19 41 -10 21
-16 40 -14 42 5 5 71 33 79 34 4 0 15 -16 23 -36z m207 -6 c-7 -7 -12 -8 -12
-2 0 14 12 26 19 19 2 -3 -1 -11 -7 -17z"/>
<path d="M3170 2979 c0 -5 5 -7 10 -4 6 3 10 8 10 11 0 2 -4 4 -10 4 -5 0 -10
-5 -10 -11z"/>
<path d="M3397 2914 c7 -3 9 -13 6 -22 -4 -15 -3 -15 6 -2 9 12 11 13 11 1 0
-8 3 -11 6 -8 9 8 -15 37 -30 36 -7 0 -7 -2 1 -5z"/>
<path d="M3430 2586 c0 -3 9 -10 20 -16 11 -6 20 -8 20 -6 0 3 -9 10 -20 16
-11 6 -20 8 -20 6z"/>
<path d="M3400 2510 c8 -5 20 -10 25 -10 6 0 3 5 -5 10 -8 5 -19 10 -25 10 -5
0 -3 -5 5 -10z"/>
<path d="M3317 640 c-7 -29 -1 -41 18 -33 18 6 19 14 2 38 -13 17 -14 17 -20
-5z"/>
<path d="M3266 3712 c-3 -5 1 -9 9 -9 8 0 12 4 9 9 -3 4 -7 8 -9 8 -2 0 -6 -4
-9 -8z"/>
<path d="M3484 3419 c-3 -6 -1 -16 5 -22 8 -8 11 -6 11 7 0 12 5 16 15 12 8
-3 15 -1 15 4 0 14 -37 13 -46 -1z"/>
<path d="M3830 3270 c0 -5 5 -10 10 -10 6 0 10 5 10 10 0 6 -4 10 -10 10 -5 0
-10 -4 -10 -10z"/>
</g>
</svg>
